<svg id="visual" viewBox="0 0 900 600" width="900" height="600" xmlns="http://www.w3.org/2000/svg" xmlns:xlink="http://www.w3.org/1999/xlink" version="1.1"><rect x="0" y="0" width="900" height="600" fill="#29303f"></rect><path d="M0 365L21.5 372.3C43 379.7 86 394.3 128.8 406.3C171.7 418.3 214.3 427.7 257.2 425.3C300 423 343 409 385.8 407.8C428.7 406.7 471.3 418.3 514.2 414.3C557 410.3 600 390.7 642.8 382C685.7 373.3 728.3 375.7 771.2 375.7C814 375.7 857 373.3 878.5 372.2L900 371L900 601L878.5 601C857 601 814 601 771.2 601C728.3 601 685.7 601 642.8 601C600 601 557 601 514.2 601C471.3 601 428.7 601 385.8 601C343 601 300 601 257.2 601C214.3 601 171.7 601 128.8 601C86 601 43 601 21.5 601L0 601Z" fill="#29303f"></path><path d="M0 457L21.5 448C43 439 86 421 128.8 420.8C171.7 420.7 214.3 438.3 257.2 449.3C300 460.3 343 464.7 385.8 458.5C428.7 452.3 471.3 435.7 514.2 434C557 432.3 600 445.7 642.8 445.8C685.7 446 728.3 433 771.2 432.2C814 431.3 857 442.7 878.5 448.3L900 454L900 601L878.5 601C857 601 814 601 771.2 601C728.3 601 685.7 601 642.8 601C600 601 557 601 514.2 601C471.3 601 428.7 601 385.8 601C343 601 300 601 257.2 601C214.3 601 171.7 601 128.8 601C86 601 43 601 21.5 601L0 601Z" fill="#57426a"></path><path d="M0 471L21.5 469.8C43 468.7 86 466.3 128.8 460.7C171.7 455 214.3 446 257.2 448.5C300 451 343 465 385.8 472.7C428.7 480.3 471.3 481.7 514.2 486.3C557 491 600 499 642.8 502C685.7 505 728.3 503 771.2 491.3C814 479.7 857 458.3 878.5 447.7L900 437L900 601L878.5 601C857 601 814 601 771.2 601C728.3 601 685.7 601 642.8 601C600 601 557 601 514.2 601C471.3 601 428.7 601 385.8 601C343 601 300 601 257.2 601C214.3 601 171.7 601 128.8 601C86 601 43 601 21.5 601L0 601Z" fill="#a04879"></path><path d="M0 482L21.5 487.8C43 493.7 86 505.3 128.8 506.3C171.7 507.3 214.3 497.7 257.2 493.5C300 489.3 343 490.7 385.8 494.3C428.7 498 471.3 504 514.2 505.7C557 507.3 600 504.7 642.8 502.7C685.7 500.7 728.3 499.3 771.2 506.2C814 513 857 528 878.5 535.5L900 543L900 601L878.5 601C857 601 814 601 771.2 601C728.3 601 685.7 601 642.8 601C600 601 557 601 514.2 601C471.3 601 428.7 601 385.8 601C343 601 300 601 257.2 601C214.3 601 171.7 601 128.8 601C86 601 43 601 21.5 601L0 601Z" fill="#e15362"></path><path d="M0 565L21.5 559.7C43 554.3 86 543.7 128.8 544.3C171.7 545 214.3 557 257.2 556.5C300 556 343 543 385.8 538.3C428.7 533.7 471.3 537.3 514.2 541C557 544.7 600 548.3 642.8 553.7C685.7 559 728.3 566 771.2 569.2C814 572.3 857 571.7 878.5 571.3L900 571L900 601L878.5 601C857 601 814 601 771.2 601C728.3 601 685.7 601 642.8 601C600 601 557 601 514.2 601C471.3 601 428.7 601 385.8 601C343 601 300 601 257.2 601C214.3 601 171.7 601 128.8 601C86 601 43 601 21.5 601L0 601Z" fill="#fe7f2d"></path></svg>